# xmcd
#
# Track frame offsets: 
#        150
#        16820
#        29342
#        43437
#        56210
#        71170
#        80822
#        99775
#        112110
#        129185
#        154165
#        167842
#        201852
#        216265
#        231252
#        249745
#        263787
#        278742
#        292515
#        306375
#        316122
#
# Disc length: 4339 seconds
#
# Revision: 3
# Processed by: cddbd v1.5.2PL0 Copyright (c) Steve Scherf et al.
# Submitted via: ExactAudioCopyFreeDBPlugin 1.0
#
DISCID=3310f115
DTITLE=Various Artist - Stax Funk
DYEAR=1997
DGENRE=Soul
TTITLE0=The 24-Carat Black - Ghetto:  Misfortune's Wealth
TTITLE1=Isaac Hayes - Run Fay Run
TTITLE2=The Bar-Kays - Cold Blooded
TTITLE3=The T.S.U. Toronados - My Thing is a Moving Thing
TTITLE4=Johnny Taylor - Hi-Jacking Love
TTITLE5=Art Jerry Miller - Grab a Handfull
TTITLE6=The South Memphis Horns - L.A.S.
TTITLE7=Shack - Too Many Lovers
TTITLE8=L.V. Johnson - One Pair of Pants
TTITLE9=Rufus Thomas - Rock Back
TTITLE10=The March Wind - Do the Sweetback
TTITLE11=Melvin Van Peebles - Sweetback Theme
TTITLE12=Chico Hamilton - Fancy
TTITLE13=Sons of Truth - I Feel good
TTITLE14=Harvey Scales - Broadway Freeze, Parts 1 and 2
TTITLE15=Rudy Robinson and Hungry 5 - Got it Together, Part 1
TTITLE16=Chuck Brookes - Love's Gonna Tear Your Playhouse Down, Part 1
TTITLE17=John KaSandra - (Whats Under) The Natural Do
TTITLE18=The Sweet Inspirations - Dirty Tricks
TTITLE19=The Soul Merchants - Wes
TTITLE20=Isaac Hayes - End Theme - Truck Turner
EXTD=
EXTT0=
EXTT1=
EXTT2=
EXTT3=
EXTT4=
EXTT5=
EXTT6=
EXTT7=
EXTT8=
EXTT9=
EXTT10=
EXTT11=
EXTT12=
EXTT13=
EXTT14=
EXTT15=
EXTT16=
EXTT17=
EXTT18=
EXTT19=
EXTT20=
PLAYORDER=
